<?xml version="1.0" encoding="UTF-8"?>
<svg xmlns="http://www.w3.org/2000/svg" id="Layer_1" data-name="Layer 1" viewBox="0 0 1632 563.02">
  <defs>
    <style>.cls-1{fill:#3767b1;}.cls-2{fill:#511b11;}.cls-3{fill:#ee6a23;}.cls-4{fill:#fff;}.cls-5{fill:#cc5b27;}.cls-6{fill:#dd5c27;}.cls-7{fill:#fdfdfc;}.cls-8{fill:#d6784e;}.cls-9{fill:#fff9f7;}.cls-10{fill:#ef6426;}.cls-11{fill:#ec6923;}.cls-12{fill:#dbdcdb;}.cls-13{fill:#f6f3f1;}</style>
  </defs>
  <title>Prancheta 4 cópia 2 copy 4</title>
  <path class="cls-1" d="M757.64,308.65h0c-14.06-10.92-33.76-17.53-58.52-19.62-22.74-2-32.68-6-37-9.08-5.52-3.9-8.1-8.34-8.1-13.95,0-5.83,2.6-9.81,8.4-12.9,7.2-3.83,17.12-5.77,29.48-5.77,9.85,0,17.91,1.51,24,4.48A40.48,40.48,0,0,1,731.15,265a23.22,23.22,0,0,0,9.49,8.18,29.33,29.33,0,0,0,13,2.94,26.58,26.58,0,0,0,12.79-3l.38-.21c6.54-3.88,10.14-9.56,10.14-16,0-4.45-1.69-9-5-13.48a89.68,89.68,0,0,0-31.81-26.87c-12.68-6.37-28.23-9.6-46.22-9.6-16.09,0-30.88,2.17-44,6.45-13.68,4.47-24.69,11.13-32.71,19.79a45.91,45.91,0,0,0-12.61,32.11c0,17.27,8,31.81,23.82,43.21,15,10.8,35.43,17.33,60.81,19.41,14.68,1.25,25.48,4.49,32.08,9.64,6.18,4.81,9.06,10.13,9.06,16.75s-3.1,11.28-10,15.18c-8.08,4.54-18.31,6.84-30.39,6.84a71.63,71.63,0,0,1-28.56-5.54c-7.84-3.39-13-7.31-15.31-11.5a24.06,24.06,0,0,0-9.93-10,29,29,0,0,0-14.18-3.68,23.39,23.39,0,0,0-5.29.5,27.46,27.46,0,0,0-13.37,6.14,16.6,16.6,0,0,0-6.06,12.61,18.84,18.84,0,0,0,2.26,8.34C606,386.38,618,397.11,635,405.09c16.45,7.71,34.91,11.62,54.87,11.62A134.86,134.86,0,0,0,732.81,410c13.9-4.65,25.25-11.83,33.74-21.33a51.14,51.14,0,0,0,13.21-35.1C779.76,335.16,772.31,320.05,757.64,308.65Z"></path>
  <path class="cls-1" d="M916.84,257.25h0a86.4,86.4,0,0,0-43.33-11.11A87.86,87.86,0,0,0,830,257.22a81.66,81.66,0,0,0-31.13,30.53,84.45,84.45,0,0,0-11.26,43A88.77,88.77,0,0,0,798,373.49a78.18,78.18,0,0,0,70,41.62,78.76,78.76,0,0,0,45.45-14,22.81,22.81,0,0,0,4.67,6.44,24.87,24.87,0,0,0,34,0,23.13,23.13,0,0,0,7-16.95V330.76a83.45,83.45,0,0,0-42.32-73.51Zm-9.69,94.3a36.92,36.92,0,0,1-13.82,14.23,38.84,38.84,0,0,1-53.65-14.31,40.85,40.85,0,0,1-5.17-20.71,41.62,41.62,0,0,1,5.19-20.89,37.77,37.77,0,0,1,33.8-19.6,38,38,0,0,1,19.83,5.19,36.61,36.61,0,0,1,13.79,14.32,42.6,42.6,0,0,1,5.1,21A41.82,41.82,0,0,1,907.15,351.55Z"></path>
  <path class="cls-1" d="M1004.28,187.66a24,24,0,0,0-17.09,7,23.49,23.49,0,0,0,0,33.94,24.41,24.41,0,0,0,34.18,0,23.51,23.51,0,0,0,0-33.94A24,24,0,0,0,1004.28,187.66Z"></path>
  <path class="cls-1" d="M1004.28,249.21a24.13,24.13,0,0,0-16.9,6.48,23,23,0,0,0-7.12,17.2V392.35a23.1,23.1,0,0,0,7,16.94,25,25,0,0,0,34.3-.11,23.41,23.41,0,0,0,6.75-16.83V272.89a23.27,23.27,0,0,0-6.88-17.09A24,24,0,0,0,1004.28,249.21Z"></path>
  <path class="cls-1" d="M1182.3,257.22h0a88,88,0,0,0-43.54-11.07,86.41,86.41,0,0,0-43.34,11.11,83.45,83.45,0,0,0-42.32,73.51V453.17a23,23,0,0,0,7.13,17.2,25.43,25.43,0,0,0,34-.12,23.25,23.25,0,0,0,6.86-17.08v-50.5a80.49,80.49,0,0,0,9.17,5.05,79.23,79.23,0,0,0,104-34.23,88.85,88.85,0,0,0,10.42-42.73,84.45,84.45,0,0,0-11.26-43A81.66,81.66,0,0,0,1182.3,257.22Zm-9.72,94.25a39.52,39.52,0,0,1-53.65,14.31,36.84,36.84,0,0,1-13.82-14.23,41.77,41.77,0,0,1-5.07-20.79,42.48,42.48,0,0,1,5.1-21,36.54,36.54,0,0,1,13.79-14.32,38.67,38.67,0,0,1,53.62,14.39,41.64,41.64,0,0,1,5.2,20.9A40.9,40.9,0,0,1,1172.58,351.47Z"></path>
  <path class="cls-1" d="M1370.54,256.92h0c-12.92-7.15-27.65-10.78-43.78-10.78-16.3,0-31.16,3.62-44.15,10.77a78.3,78.3,0,0,0-30.84,30.25c-7.26,12.74-10.94,27.41-10.94,43.6,0,16,3.68,30.58,10.94,43.33a78.34,78.34,0,0,0,30.83,30.25c13,7.14,27.85,10.77,44.16,10.77s31.15-3.63,44.06-10.79a78.58,78.58,0,0,0,30.66-30.23c7.26-12.75,10.94-27.33,10.94-43.33,0-16.21-3.74-30.89-11.11-43.66A79.61,79.61,0,0,0,1370.54,256.92Zm-10,95a34.93,34.93,0,0,1-13.56,14,42.45,42.45,0,0,1-40.35,0,35.83,35.83,0,0,1-13.75-14.06,42.26,42.26,0,0,1-5.07-21.05,43,43,0,0,1,5.1-21.24,35.57,35.57,0,0,1,13.72-14.14,42.38,42.38,0,0,1,40.35,0,34.68,34.68,0,0,1,13.54,14.06,44.08,44.08,0,0,1,5,21.32A43.28,43.28,0,0,1,1360.5,351.9Z"></path>
  <path class="cls-1" d="M1562.39,326.32h0c-10.59-8.14-27.29-14.2-51-18.49-9.87-1.84-17.39-3.7-22.33-5.53-5.45-2-6.74-3.46-6.76-3.48a4.23,4.23,0,0,1-.78-2.95c0-.53,0-1.41,2.92-2.79,4.31-2,10.24-3.06,17.63-3.06a59.54,59.54,0,0,1,16.91,2,35.32,35.32,0,0,1,12.08,6.73,32.91,32.91,0,0,0,21.23,7.6,26.28,26.28,0,0,0,14.65-4l.52-.36c7.55-5.58,9.13-11.84,9.13-16.1,0-5.24-2.15-10.28-6.39-15-7.12-7.89-16.78-14.1-28.7-18.46-11.5-4.21-24.56-6.35-38.84-6.35a108.55,108.55,0,0,0-33.51,5.13c-11.1,3.62-20.28,9.18-27.27,16.54a40.55,40.55,0,0,0-11.35,28.85c0,27.06,22.29,44.63,66.28,52.24,16.53,2.81,24.07,5.81,27.47,7.83,4.31,2.56,4.31,4.5,4.31,5.44s0,2.88-4.08,5.08c-4.49,2.43-11.73,3.72-21,3.72a58.64,58.64,0,0,1-20.21-3.45c-6-2.21-10.43-4.67-13.09-7.31l-.38-.36c-7.06-6.34-14.19-7.67-18.94-7.67-5.49,0-11.14,1.89-16.86,5.68-6.82,4.59-10.43,11-10.43,18.53a20.39,20.39,0,0,0,7.16,15.47c7.9,7.1,18.73,12.85,32.17,17.07a139.12,139.12,0,0,0,41.78,6.18c15,0,28.15-2.22,39.13-6.6,11.53-4.58,20.49-11.1,26.63-19.37a46.18,46.18,0,0,0,9.36-28.05C1579.88,347,1574,335.25,1562.39,326.32Z"></path>
  <path class="cls-2" d="M303,519.44c-32.72-.78-65.5-1.49-97.67-8.24-37.41-7.84-72.17-21.75-101.1-47.69a126.22,126.22,0,0,1-39.3-65.38c-.76-3.11-1.7-4.29-4.84-4-2.88.29-6,.21-7.43-2.91-1.53-3.31.68-5.73,2.65-8.07,2.71-3.21,5.47-6.37,8.11-9.64,1.77-2.19,1.7-3.69-1.52-4.62-3.63-1.05-8.1-2-8-7s4.44-6.55,8.27-7.64a41,41,0,0,0,23.31-16.42,54.29,54.29,0,0,1,12-12.16c3.72-2.78,3.37-5.08,1.09-8.69-23.21-36.8-20.6-85.33,6.36-119.24a106.12,106.12,0,0,1,38-30c4.72-2.24,6.08-4.14,4.93-9.76-2.29-11.19-1.6-22.74-.45-34.11,1.83-18,5.79-35.44,14.27-51.53,7.66-14.53,18.58-25.68,35.52-28.52,11.54-1.94,21.63,1.9,29.21,11,9.77,11.68,11.67,25.65,10.87,40.28-.14,2.51-.24,5-.27,7.55,0,4.52,1.13,5.17,5.38,3.22,3-1.36,4.55-3.83,5.82-6.65C251,93.17,253,86.77,256.4,80.92c9.26-16.09,31.77-18.67,44.17-4.86a35.8,35.8,0,0,1,8.31,14.76c1.68,6.29,3.13,7.16,9.67,6.71,9.92-.69,17.48,3.63,23.63,11,4.94,5.93,5.32,6,11.59,3.11,6.05-2.82,7.93-6.26,7.06-12.27-1.87-12.77-.31-25.08,5.43-36.74,9-18.25,29-24.49,46.79-14.46,14.22,8,22,21.09,27.83,35.75,7.21,18,7.69,36.92,8.08,55.88.14,6.72.58,13.42.65,20.14,0,3.39,2.08,4.43,4.76,5.53,17,7,32,16.78,43.9,31.07s17.41,31.17,20.16,49.12c3.65,23.73,1.2,46.49-11.77,67.37-2.14,3.44-1.64,6.82.64,9.87a32.56,32.56,0,0,0,22.8,13.27c3.74.47,6-1.3,6.9-5,.51-2.06,1-4.4,3.85-4.64s4.24,1.66,5.56,3.62c5.54,8.24,2.48,17.13-7.09,19.64-4.55,1.2-5.21,2.91-3.8,7.4,7.33,23.42,2.25,45.4-8.76,66.46-16.27,31.11-42.34,51.5-73.34,66.33-26.25,12.56-54.23,19-82.85,23.39C348.15,516.78,325.79,520.5,303,519.44Z"></path>
  <path class="cls-3" d="M505.63,353.84c7.07,8.16,10.22,17.78,10.59,28.44a19.07,19.07,0,0,0,0,5.89c-.58,15.74-8.56,28.2-17.69,40.17-17.15,22.51-40.28,36.3-66.4,45.78-17.68,5-36,5.36-54.06,7.4-6.47.73-13,1-19.48,1.7-3.16.34-6.32.7-9.45-.22-3-2.56.08-3.69,1.38-4.86,7.44-6.71,13.3-14.44,16.41-24.1a81.63,81.63,0,0,0,3.32-20.17c1.23-3.47,3.86-5.53,7.07-7,9.5-2.23,16.86-12.45,16.56-23.18-.05-2-.2-4,1.1-5.73,7-6.45,7-9.64.45-16.57-5.2-5.52-11.61-7.64-18.89-8-2.16-.1-4.38.25-6.4-.89-14.61-19.87-34.15-32.63-58.43-35.62-32.11-3.95-59,6.84-78.64,33.5-3.48,4.73-6,10-8.86,15.15-2.68,1.51-5.77,1.72-8.62,2.67-3.46,1.16-6.41,3-8.24,6.23-2.88,5.15-1.11,10.07,4.42,11.92,3.24,1.08,5.92,2.84,6.77,6.17,1.6,6.33,4.88,11.73,8.55,17a11.23,11.23,0,0,1,2.08,5.08c-.57,14.66,5.24,26.73,15.06,37.19,1.33,1.42,3.1,2.78,2.15,5.19-1.94,1.08-4,.47-5.9.09-29-5.76-56.89-14.81-82.16-30.61-9-5.61-17.44-12.06-24.53-20-11-12.3-17.4-26.59-18.13-43.24a15.36,15.36,0,0,0-.63-5.43c-.56-8.41,2.25-10.59,10.09-7.3,16.54,6.94,33.67,10.36,51.62,9.31,17.11-1,33-5.66,47.43-15.18,4.11-2.71,6.48-7.32,10.89-9.65,10.11-6.23,20.3-12.27,28.66-21,16.07-16.81,24.15-37.08,26.83-59.82.47-4,.71-8,1.05-12,5.24-2.88,11.21-3,16.86-4.4,1.77-.44,2.8.34,2.79,2.41s-.38,4,.31,6c2.06,27.43,10.58,52.05,30.76,71.73,14.79,14.43,32.7,22.44,52.77,26.17l5.42,1c14.23,10.65,30.58,9.57,46.81,8a143.43,143.43,0,0,0,47.8-12.83C498.9,358.44,501.4,354.74,505.63,353.84Z"></path>
  <path class="cls-4" d="M394.33,278.53c-8.8,7.28-16.63,7.52-21.93,1.24s-3.8-13.06,4.58-20c-6.45-2.85-12.37-2-18.14,1.18-5.62,3.12-9.45,7.9-12.43,13.49s-4.23,11.9-5.26,18.64c-12.93-26.28-8.4-68.55,23.61-94.23A81.46,81.46,0,0,1,480.94,311.38c-24.59,32.49-68.66,41-101.5,23.46C398.51,320,400.28,300.55,394.33,278.53Z"></path>
  <path class="cls-4" d="M260.54,295.32c-.46-6.18-1.3-11.45-3.6-16.77-3.5,3.71-7.39,6.34-12.66,5.76a13.14,13.14,0,0,1-9-5c-5-6.06-3.4-12.76,4.46-19.2-5.59-4.53-17.29-1.19-23.12,4.67-8.54,8.59-12.06,19.21-12.25,31-.27,15.88,4.14,29.77,18.34,39-26.31,18.38-73.88,8.58-97.87-20.1a81.39,81.39,0,0,1,4.79-109.75C159.37,175.13,208,173,239.94,200.12,271.56,226.92,274.84,271,260.54,295.32Z"></path>
  <path class="cls-3" d="M174.4,118.63c1.36-19,8.11-35.46,23.16-47.81,5.32-4.37,8.83-3.49,11.91,2.63,6.58,13.06,7,27,6,41.2-.46,6.67-1.45,13.31-1.84,20-.64,11,1.1,12.78,12.2,13.4,14.34,4.05,28.1-1,36.62-13.7,7.9-11.78,14.43-24.22,17.07-38.38.46-2.49.48-5,.74-7.51s1.29-4.24,4.28-2.91c5.74,3,4.06,8.85,4.7,13.47,1.08,7.77,1,15.71,1.41,23.58.18,3.68.67,7.18,4.93,8.37,4.42,1.23,7.38-.65,9.48-4.55a41.17,41.17,0,0,1,9.31-11.8c4.07-3.52,8.21-2.78,10.79,1.94,3,5.49,2.79,11.31,1.22,17.1-1,3.7-2.41,7.3-3.74,10.92-1.62,4.4-1.21,8.32,2.79,11.21,3.69,2.67,8.8,1.93,12.33-1.76a30.77,30.77,0,0,0,8.14-14.83c1.08-4.92,2.86-8.05,8.65-7.32,1.87.23,4-.54,5.85-1.23,4.18-1.53,6.12-.35,5.81,4.21a18.09,18.09,0,0,0,.12,4c.6,3.88,2.4,6.9,6.26,8.43s6.86.49,9.57-2.29a20.7,20.7,0,0,0,7.56-12c2.67-10.75,4.77-21.54,4.31-32.68a35.41,35.41,0,0,1,.48-6c.9-6.79,1.89-13.58.1-20.39-.51-2-.6-4,.73-5.77,3.89-1.78,6.74.17,9.37,2.69,9.87,9.43,14.59,21.48,16.89,34.53,2.8,16,1.84,31.92-1.14,47.78-2.82,2.22-6.14,1.13-9.24,1.3-30.13,1.67-58.37,9.31-82.83,27.61a72.07,72.07,0,0,0-25.6,34.79c-.65,1.9-1.16,3.9-3.2,4.89-.82.19-1.63.43-2.45.56-11.92,1.85-12.1,1.63-17.91-8.83-15.58-28-38.91-46-70.29-52.92-6.31-1.4-12.91-1.47-19.37-2.16-3.93-4.49-4.88-10-4-15.5.89-5.68-1-9.42-5.74-12.15S172.8,124.21,174.4,118.63Z"></path>
  <path class="cls-5" d="M348.06,482.08c15.51-.54,30.93-2,46.33-3.83,12.57-1.48,25.16-2.76,37.74-4.13-13.29,7.21-27.88,10.43-42.45,13.64-23.73,5.21-47.3,11.12-71.35,14.92-13.31,2.1-26.43,1.44-39.55-.57-27.5-4.23-55.1-7.88-82.08-15-28.57-7.51-55.36-18.77-77.73-38.58-15.28-13.52-28.15-28.94-32.47-49.72C82,377.09,89.16,359,105.25,344.57c10.42-9.36,7.3-8.16,17.44-.45,18.59,14.16,39.51,22.15,62.88,22.59,15.77.29,30.92-3.48,45.31-10.1,1.36-.62,2.79-1.09,4.18-1.64-10,15-25.8,20.35-42.07,24-23.39,5.28-46.17,2.05-68.24-7.07-7.82-3.23-8.72-2.47-8.74,6.24,1.17,1.51-.23,3.54,1,5,1,20.68,10.36,37.13,25.92,50.22a144.07,144.07,0,0,0,24.74,17.06A238.12,238.12,0,0,0,223.8,472c7.45,1.81,15,3.37,22.44,5,2.26-1.27,3.89.38,5.51,1.36,28.27,16.94,57.6,17.18,87.72,5.72C342.21,483,344.79,481,348.06,482.08Z"></path>
  <path class="cls-5" d="M505.63,353.84c-4.24,5.61-10.5,8.35-16.67,10.7-21,8-42.78,12.07-65.29,10.45-8.6-.62-17.41-2.06-23.16-9.94,13.09,1.17,26.12,1.11,39-2,16.79-4.07,31.84-11.44,44.57-23.28,4.5-4.19,5.59-4.13,10,.19A78.71,78.71,0,0,1,505.63,353.84Z"></path>
  <path class="cls-5" d="M299.62,221.75a77.85,77.85,0,0,1,18.31-31.89c15.94-16.67,36.15-25.78,57.95-31.45,14.53-3.78,29.45-6,44.62-5.25.37,4.47-2.18,5.19-6,5.1-20.94-.51-40.6,3.77-58,16-14.79,10.36-25.2,24.47-33.25,40.29-2.78,5.46-6,7.87-12.08,7.22C307.36,221.34,303.47,221.72,299.62,221.75Z"></path>
  <path class="cls-5" d="M284.57,85.54c-2.43-.15-3.06,1.09-3.14,3.37-.67,19.08-9.52,35.05-20.55,49.65-7.2,9.53-18.07,13.3-30.25,12.66-2.51-.13-3.3-2-4.77-3.18,5.49-2.81,6.48-7.78,6.13-13.23-.27-4.12.8-6.62,5.46-7.25,17.84-2.43,29-12.75,34.28-29.77.9-2.87,2-5.68,3.2-8.46C276.83,84.86,280,83.41,284.57,85.54Z"></path>
  <path class="cls-5" d="M395.37,68.16c.38,3,.81,5.92,1.12,8.89,1.31,12.46-1.46,24.73-1.72,37.13-.16,7.51-2.42,14.75-4.41,21.94-1.16,4.19-2.88,8.3-8.17,8.9,2.05-6.57,1.22-13.24.64-19.89-1.13-13-3.05-26-.39-38.95C384,78.43,386.27,70.72,395.37,68.16Z"></path>
  <path class="cls-6" d="M311.56,266.12c-.19-.27-.52-.51-.57-.8-1.17-6.76-1.17-6.78-8.09-5.09-3.73.91-7.41,2-11.3,1.92-.38-4.64-.59-9.31-1.19-13.94-.5-3.88,1.31-5.14,4.78-5.14q6.27,0,12.52-.11c4-.06,5.66,2.06,4.9,5.7C311.39,254.46,312,260.31,311.56,266.12Z"></path>
  <path class="cls-5" d="M174.4,118.63c-.71,5.39,2,8.73,6.47,11.19,5.19,2.86,7.61,6.75,5.94,13.11-1.4,5.33,1.47,10.37,2.79,15.47-14-.5-12.08,2.5-14.44-12.06C173.68,137.21,172.43,127.93,174.4,118.63Z"></path>
  <path class="cls-7" d="M351.08,297.07a47.54,47.54,0,0,1,1.14-5.73,3.87,3.87,0,0,1,4.26-2.84c1.95.17,3.55,1.05,3.82,3.29a17.52,17.52,0,0,0,4.38,9.4c1.84,2.13,2.57,4.46.55,6.75a6.11,6.11,0,0,1-7.21,1.91C353.46,308.19,351.1,304.39,351.08,297.07Z"></path>
  <path class="cls-7" d="M214.29,297.33c0-.33.19-1.32.3-2.32.32-3.13.84-6.38,4.8-6.5s4.16,3,4.63,5.94c.42,2.7,2.23,4.81,3.95,6.88s2.26,4.24.55,6.41a6.22,6.22,0,0,1-6.69,2.36C216.89,308.91,214.22,304.68,214.29,297.33Z"></path>
  <path class="cls-8" d="M516.22,388.17a5.88,5.88,0,0,1,0-5.89A12,12,0,0,1,516.22,388.17Z"></path>
  <path class="cls-2" d="M377.53,427.65c-2.4,1.69-5,3.17-6.43,5.89-2.05,3.53-5.75,4.51-9.2,5.72a49.54,49.54,0,0,1-19.31,2.86c-3.49-.21-5.34,1.17-5.7,4.71-1.48,14.35-10.21,17.95-21.59,18.37-12.58.46-25.19.26-37.78.06-6.59-.11-10.88-4.18-12.35-11.1-1.41-6.61-1.42-6.48-8.37-7.07-8.26-.71-16.31-2.27-23.45-6.88-2.13-1.39-4.25-2.75-5-5.4-.34-2.06-1.65-3.6-2.76-5.27-3.41-5.13-7-10.16-8.08-16.47-.54-3.14-2.68-4.77-5.77-5.47-6.93-1.57-9.38-7.39-5.88-13.58,2.39-4.21,6.18-6.44,10.72-7.56,2.42-.61,4.9-1,7.35-1.5,5.3-1.53,14.75,1.26,17.9,5.29,2.91,3.72,2.92,6.53,0,10.33-9.24,3.25-9.24,3.25-5.34,12.58s13.36,14.82,25,14.12c10.66-.63,19.53-4.59,24.82-14.5,2.71-5.07,2.5-6-2.06-9.55-10.66-8.4-20-17.84-25-30.87-1.43-12.71,2.06-18.88,14.23-22.31,17.68-5,35.51-5.64,52.7,2.11,9.89,4.46,12.11,10.57,8.66,21a59,59,0,0,1-6.89,14,105.75,105.75,0,0,1-14,15.18c-2.85,2.61-2.84,4.84-.39,7.73,10.85,12.8,31.6,16.46,46,7.77,7.87-4.75,11.24-12.14,11.39-21.2.06-3.41-1.14-4.68-4.55-3.43a9.36,9.36,0,0,1-4.5.25c-6.16-2.66-7.6-6.35-4.19-11.8,3-4.73,6.26-9.28,12.68-9.51,10.93-.5,20.88,1.49,28.23,10.62,5.07,6.3,4,12-3.18,15.71-4.65-.42-6,1.85-6.31,6.3a36.77,36.77,0,0,1-5.73,17A16.79,16.79,0,0,1,377.53,427.65Z"></path>
  <path class="cls-9" d="M326.69,386.9c2.88-5.45,6.11-10.71,7.64-16.81,2-7.89.58-12-6.66-15.82-11.67-6.2-24.34-6.94-37.18-6a82.86,82.86,0,0,0-13.39,2.07c-14.43,3.55-17.53,7.93-16.61,22.68-1.22,8.13,2.44,14.61,7.14,20.69,2.57,3.31,5.25,6.51,6.11,10.79s-.42,7.37-4.39,9c-7.06,2.88-14.33,3.33-21.52.49a14,14,0,0,1-7.94-8c-.86-2.09-1.28-4.24,1.19-5.72,2.88-4.79,1.94-8.84-3-11.46a33,33,0,0,0-14.21-3.9c7.39-19.56,21.14-33.16,39.85-41.9,37.73-17.62,73.44-6.54,100.56,19.92a23.37,23.37,0,0,1,6.12,9.11c-4.56,2.43-8.87,5.14-11.55,9.81-3,5.16-2.12,7.94,3.31,10.63,5.2.69,6.1,2.28,4,7.22-2.72,6.34-7.93,9.8-14.18,11.95-9.48,3.26-19.23,2.94-28.82,1.12-8-1.51-9.43-6.29-4.57-12.67C321.77,396,324.91,391.87,326.69,386.9Z"></path>
  <path class="cls-9" d="M228.34,434.81c9.17,8.09,20.21,11,32.07,10.82,4.31-.06,5.45,1.66,5.85,5.4,1.09,10.24,4,12.72,14,13,11.92.37,23.84.29,35.74-.33,13.36-.7,18.62-5.49,19.61-18.57.3-4.08,1.81-4.56,5.15-4.36a54.21,54.21,0,0,0,30.33-7.26c.39,18-5.71,33.17-19.34,45.14-1.25,1.11-2.46,2.26-3.7,3.4-9.1,3.56-18.19,7.13-27.85,9.08a100,100,0,0,1-32,1.07c-11.57-1.39-22.54-4.28-32.69-10.23-3-1.76-5.72-4.19-9.27-5-.11-2.09-1.91-3-3.09-4.34C233.56,461.85,226.8,450,228.34,434.81Z"></path>
  <path class="cls-6" d="M377.53,427.65c6.87-8,10.22-17.33,11-27.94.45-6.61,4.6-1,7-1.29-1.18,3.8.31,7.74-1,11.66a41.44,41.44,0,0,1-7.27,13.49A10.69,10.69,0,0,1,377.53,427.65Z"></path>
  <path class="cls-10" d="M117,383.2c-1.68-1.41-.76-3.34-1-5C117.68,379.58,116.77,381.5,117,383.2Z"></path>
  <path class="cls-11" d="M286.07,173.26c-4-.46-7.86-1.08-9-5.78-1-4.21,1.69-6.59,4.86-8.38a56.11,56.11,0,0,0,18.72-17.18,17.93,17.93,0,0,1,3.41-3.66c4.55-3.72,8.57-2.31,10,3.48a11.61,11.61,0,0,1,.42,4c-1.23,11.45-14.56,25.38-25.95,27.24C287.74,173.07,286.91,173.15,286.07,173.26Z"></path>
  <path class="cls-11" d="M328.51,167.09c0,4.5-4.15,8.87-8.55,8.93-4.24,0-8.82-4.5-8.83-8.78s4.25-8.33,9-8.3S328.48,162.37,328.51,167.09Z"></path>
  <path class="cls-11" d="M283.38,132a7.7,7.7,0,0,1,7.42,7.82,7.19,7.19,0,0,1-7.56,7.55,7.86,7.86,0,0,1-7.87-7.45A8.1,8.1,0,0,1,283.38,132Z"></path>
  <path class="cls-12" d="M241.08,400.32c-1.41,5.12,1.85,10.85,7.53,12.77a29.36,29.36,0,0,0,20.58-.77c2.85-1.13,4.05-3.23,3.51-6.76-.81-5.42-4.52-8.87-7.52-12.76-3.47-4.52-5.2-9.64-6.56-15a4.17,4.17,0,0,1,1.87-4.75c5.9,12.83,15.44,22.53,26.71,30.64,2.47,1.77,2.95,3.31,1.93,6-4.69,12.46-15.42,19.2-30.13,18.75-13.58-.42-21.45-6.62-25.36-20C231.73,401.9,232.5,401.06,241.08,400.32Z"></path>
  <path class="cls-13" d="M308.42,447.51c.49-7.39-1.2-11-4.66-11.22s-5.2,2.75-5.27,9.72c-.1,9-.1,8.94-9.13,9.61a36.49,36.49,0,0,1-9.5-.62c-3.62-.69-4.83-3.29-5.27-6.45-.47-3.33,1.14-5.29,4.27-6.39a44.77,44.77,0,0,0,20.44-14.87c1.7-2.14,2.67-2.12,4.6-.46A58.8,58.8,0,0,0,321,437.18c2.5,1,6,1.13,5.72,5.15s-.47,8.53-4.69,11a13.89,13.89,0,0,1-10.74,1.18C307.14,453.46,308.58,449.5,308.42,447.51Z"></path>
  <path class="cls-12" d="M326.69,386.9c.3,5.74-3.44,9.62-6.62,13.57-5.15,6.42-4.4,9.64,3.87,11.06,11.1,1.91,22.22,2.18,32.72-3.29a19.49,19.49,0,0,0,8.2-8.52c1.72-3.19,2.45-6.36-2.65-7.19,1.65-.18,3.63.16,4.88-.63,4.7-3,5.27-.61,5.29,3.45.09,14.26-7.24,24-21.13,27.17-14.85,3.39-27.92-.08-38.42-11.39-4.48-4.82-4.26-5.77.59-9.89S322.57,392,326.69,386.9Z"></path>
</svg>
